<svg xmlns="http://www.w3.org/2000/svg" width="30" height="30" viewBox="0 0 30 30"><defs><style>.a,.d{fill:none;}.a{stroke:#7f17e6;stroke-miterlimit:10;stroke-width:2px;}.b{fill:#7f17e6;}.c{stroke:none;}</style></defs><g transform="translate(-930 -1104)"><g class="a" transform="translate(930 1104)"><circle class="c" cx="15" cy="15" r="15"/><circle class="d" cx="15" cy="15" r="14"/></g><path class="b" d="M945.36,1111.755a8.228,8.228,0,0,1,2.313.333,5.443,5.443,0,0,1,2.052,1.116,5.647,5.647,0,0,1,1.467,2.061,7.872,7.872,0,0,1,.558,3.15v1.17a7.872,7.872,0,0,1-.558,3.15,5.647,5.647,0,0,1-1.467,2.061,5.443,5.443,0,0,1-2.052,1.116,8.228,8.228,0,0,1-2.313.333h-2.682a5.042,5.042,0,0,1-1.35-.153,1.858,1.858,0,0,1-.864-.495,1.937,1.937,0,0,1-.459-.882,5.549,5.549,0,0,1-.135-1.314v-8.8a5.549,5.549,0,0,1,.135-1.314,1.937,1.937,0,0,1,.459-.882,1.858,1.858,0,0,1,.864-.495,5.042,5.042,0,0,1,1.35-.153Zm2.718,6.372a3.442,3.442,0,0,0-.774-2.421,2.661,2.661,0,0,0-2.052-.837h-1.188a.63.63,0,0,0-.414.1.588.588,0,0,0-.108.423v7.218a.588.588,0,0,0,.108.423.63.63,0,0,0,.414.1h1.188a2.661,2.661,0,0,0,2.052-.837,3.442,3.442,0,0,0,.774-2.421Z"/></g></svg>