<svg xmlns="http://www.w3.org/2000/svg" xmlns:xlink="http://www.w3.org/1999/xlink" width="33.084" height="34.127" viewBox="0 0 33.084 34.127"><defs><style>.a{fill:none;clip-rule:evenodd;}.b{clip-path:url(#a);}.c{fill:#3e82f1;}.d{clip-path:url(#b);}.e{fill:#32a753;}.f{clip-path:url(#c);}.g{fill:#f9bb00;}.h{clip-path:url(#d);}.i{fill:#e74133;}</style><clipPath id="a"><path class="a" d="M2452.162,862.74a19.352,19.352,0,0,0-.307-3.453h-15.9v6.529h9.084a7.765,7.765,0,0,1-3.368,5.095v4.235h5.456a16.463,16.463,0,0,0,5.033-12.406Zm0,0" transform="translate(-2435.958 -859.287)"/></clipPath><clipPath id="b"><path class="a" d="M2428.087,882.511a16.116,16.116,0,0,0,11.171-4.09l-5.455-4.235a10.184,10.184,0,0,1-15.161-5.348H2413v4.373a16.873,16.873,0,0,0,15.084,9.3Zm0,0" transform="translate(-2413.003 -868.838)"/></clipPath><clipPath id="c"><path class="a" d="M2417.705,863.209a9.99,9.99,0,0,1,0-6.414v-4.373h-5.639a16.9,16.9,0,0,0,0,15.161l5.639-4.373Zm0,0" transform="translate(-2410.271 -852.422)"/></clipPath><clipPath id="d"><path class="a" d="M2428.087,844.984a9.119,9.119,0,0,1,6.452,2.524l4.841-4.841a16.221,16.221,0,0,0-11.293-4.4,16.873,16.873,0,0,0-15.084,9.3l5.639,4.373a10.06,10.06,0,0,1,9.446-6.959Zm0,0" transform="translate(-2413.003 -838.27)"/></clipPath></defs><g transform="translate(16.88 14.177)"><g class="b"><rect class="c" width="34.96" height="34.614" transform="translate(-9.378 -9.377)"/></g></g><g transform="translate(1.795 20.454)"><g class="d"><rect class="e" width="45.011" height="32.428" transform="translate(-9.378 -9.378)"/></g></g><g transform="translate(0 9.483)"><g class="f"><rect class="g" width="26.19" height="33.916" transform="translate(-9.378 -9.378)"/></g></g><g transform="translate(1.795)"><g class="h"><rect class="i" width="45.134" height="32.428" transform="translate(-9.378 -9.377)"/></g></g></svg>