<svg xmlns="http://www.w3.org/2000/svg" xmlns:xlink="http://www.w3.org/1999/xlink" width="70" height="70" viewBox="0 0 70 70"><defs><style>.a{fill:none;clip-rule:evenodd;}.b{fill:#eee;}.c{clip-path:url(#a);}.d{fill:#3e82f1;}.e{clip-path:url(#b);}.f{fill:#32a753;}.g{clip-path:url(#c);}.h{fill:#f9bb00;}.i{clip-path:url(#d);}.j{fill:#e74133;}</style><clipPath id="a"><path class="a" d="M2460.617,864.541a29.456,29.456,0,0,0-.467-5.254h-24.192v9.936h13.824a11.816,11.816,0,0,1-5.126,7.753v6.445h8.3c4.857-4.472,7.659-11.057,7.659-18.88Zm0,0" transform="translate(-2435.958 -859.287)"/></clipPath><clipPath id="b"><path class="a" d="M2435.958,889.645a24.525,24.525,0,0,0,17-6.224l-8.3-6.445a15.5,15.5,0,0,1-23.072-8.138H2413v6.655a25.677,25.677,0,0,0,22.955,14.152Zm0,0" transform="translate(-2413.003 -868.838)"/></clipPath><clipPath id="c"><path class="a" d="M2421.584,868.838a15.2,15.2,0,0,1,0-9.761v-6.655H2413a25.72,25.72,0,0,0,0,23.071l8.581-6.655Zm0,0" transform="translate(-2410.271 -852.422)"/></clipPath><clipPath id="d"><path class="a" d="M2435.958,848.487a13.877,13.877,0,0,1,9.819,3.841l7.367-7.367a24.685,24.685,0,0,0-17.186-6.691A25.677,25.677,0,0,0,2413,852.422l8.581,6.655a15.308,15.308,0,0,1,14.374-10.59Zm0,0" transform="translate(-2413.003 -838.27)"/></clipPath></defs><g transform="translate(-2400.444 -829.236)"><g transform="translate(2400.444 829.236)"><rect class="b" width="70" height="70" rx="10"/><g transform="translate(9.827 9.034)"><g transform="translate(25.687 21.575)"><g class="c"><rect class="d" width="53.201" height="52.675" transform="translate(-14.271 -14.27)"/></g></g><g transform="translate(2.732 31.126)"><g class="e"><rect class="f" width="68.496" height="49.348" transform="translate(-14.271 -14.271)"/></g></g><g transform="translate(0 14.431)"><g class="g"><rect class="h" width="39.855" height="51.613" transform="translate(-14.271 -14.271)"/></g></g><g transform="translate(2.732)"><g class="i"><rect class="j" width="68.683" height="49.348" transform="translate(-14.271 -14.27)"/></g></g></g></g></g></svg>