<svg xmlns="http://www.w3.org/2000/svg" width="34" height="31.698" viewBox="0 0 34 31.698"><defs><style>.a{fill:#3c1e1e;}.b{fill:#f9e000;}</style></defs><g transform="translate(-2178.561 -824.356)"><path class="a" d="M2198.984,828.715c-9.389,0-17,6.052-17,13.515,0,4.627,2.924,8.71,7.383,11.146l-1.229,6.588a.378.378,0,0,0,.579.385l7.3-4.811s1.953.206,2.964.206c9.388,0,17-6.051,17-13.515S2208.372,828.715,2198.984,828.715Zm-8.389,17.343a.826.826,0,0,1-.24.58.806.806,0,0,1-.572.239h-.178a.807.807,0,0,1-.573-.24.827.827,0,0,1-.24-.579v-5.915H2187.2a.84.84,0,0,1,0-1.679h4.9a.84.84,0,0,1,0,1.679h-1.5Zm7.848.775a.809.809,0,0,1-1.033-.5l-.415-1.195h-3.341l-.416,1.195a.808.808,0,0,1-1.033.5.818.818,0,0,1-.5-1.04l.01-.028.02-.053.029-.079.038-.1.046-.126.055-.146.061-.166.068-.183.074-.2.079-.213.084-.226.088-.238.091-.247.094-.255.1-.26.1-.265.1-.268.1-.269.1-.268.1-.266.1-.263.1-.257.092-.25.089-.242.086-.23.081-.22.076-.205.071-.19.064-.173.057-.155.05-.134.042-.113c.04-.105.159-.45.189-.512a1,1,0,0,1,.125-.2,1.153,1.153,0,0,1,.262-.234,1.294,1.294,0,0,1,.339-.154,1.39,1.39,0,0,1,.392-.055,1.2,1.2,0,0,1,1.144.708l.008.007,2.442,6.731A.817.817,0,0,1,2198.443,846.832Zm5.123-.01h-3.329a.76.76,0,0,1-.757-.763v-6.8a.9.9,0,1,1,1.809,0V845.3h2.277a.763.763,0,0,1,0,1.526Zm7.15-.107a.8.8,0,0,1-1.132-.162l-2.4-3.176-.516.52v2.07a.9.9,0,1,1-1.809,0v-6.711a.9.9,0,1,1,1.809,0v2.373l2.84-2.862a.792.792,0,0,1,1.126,0,.807.807,0,0,1,0,1.134l-2.3,2.312,2.54,3.361A.818.818,0,0,1,2210.716,846.715Z" transform="translate(-3.423 -4.359)"/><path class="a" d="M2201.058,845.887l-1.123,3.229h2.281l-1.121-3.225C2201.082,845.891,2201.071,845.887,2201.058,845.887Z" transform="translate(-9.175 -9.862)"/><path class="b" d="M2195,843.9a.837.837,0,0,0-.835-.839h-4.9a.84.84,0,0,0,0,1.679h1.592v5.915a.826.826,0,0,0,.24.579.8.8,0,0,0,.573.24h.178a.806.806,0,0,0,.572-.239.827.827,0,0,0,.24-.58v-5.915h1.5A.838.838,0,0,0,2195,843.9Z" transform="translate(-5.49 -8.956)"/><path class="b" d="M2211.814,849.838h-2.277V843.8a.9.9,0,1,0-1.809,0v6.8a.76.76,0,0,0,.757.763h3.329a.763.763,0,0,0,0-1.526Z" transform="translate(-11.672 -8.901)"/><path class="b" d="M2219.123,846.754l2.295-2.312a.806.806,0,0,0,0-1.133.792.792,0,0,0-1.126,0l-2.84,2.862V843.8a.9.9,0,1,0-1.809,0v6.711a.9.9,0,1,0,1.809,0v-2.07l.516-.52,2.4,3.176a.8.8,0,0,0,1.131.162.818.818,0,0,0,.161-1.141Z" transform="translate(-14.208 -8.901)"/><path class="b" d="M2201.06,843.6l-.008-.007a1.2,1.2,0,0,0-1.144-.708,1.392,1.392,0,0,0-.392.055,1.279,1.279,0,0,0-.339.154,1.16,1.16,0,0,0-.263.234,1.012,1.012,0,0,0-.125.2c-.03.063-.149.407-.189.512l-.042.113-.049.134-.057.155-.064.173-.07.19-.076.205-.081.219-.085.23-.089.242c-.031.083-.062.167-.093.25l-.1.257-.1.263-.1.267-.1.268-.1.269-.1.268-.1.265-.1.26-.094.255-.091.247-.087.238-.085.226-.079.213-.074.2-.068.183-.061.166-.054.146-.046.126-.038.1-.029.079-.02.053-.01.028a.818.818,0,0,0,.5,1.04.808.808,0,0,0,1.033-.5l.416-1.195h3.342l.415,1.195a.808.808,0,0,0,1.033.5.817.817,0,0,0,.5-1.04Zm-2.313,4.552,1.123-3.229c.012,0,.024,0,.036,0l1.121,3.225Z" transform="translate(-7.987 -8.901)"/></g></svg>