<svg xmlns="http://www.w3.org/2000/svg" width="18.507" height="18.501" viewBox="0 0 18.507 18.501"><defs><style>.a{fill:#fff;stroke:#fff;stroke-width:0.5px;}</style></defs><path class="a" d="M1.313,18H3.188A1.314,1.314,0,0,0,4.5,16.688v-.275A17.443,17.443,0,0,0,12.4,18h1.2a3.553,3.553,0,0,0,3.509-2.957l.84-4.875A3.561,3.561,0,0,0,14.439,6h-3.4a7,7,0,0,0,.425-2.438C11.461.745,9.867,0,9.024,0,7.467,0,7.336,1.452,7.336,2.813c0,1.661-1.862,3.041-2.846,3.654a1.31,1.31,0,0,0-1.3-1.217H1.313A1.314,1.314,0,0,0,0,6.563V16.688A1.314,1.314,0,0,0,1.313,18ZM8.461,2.813c0-1.688.286-1.688.563-1.688.528,0,1.313.65,1.313,2.438a5.326,5.326,0,0,1-.656,2.688.563.563,0,0,0,.468.875h4.29a2.436,2.436,0,0,1,2.4,2.852L16,14.852a2.431,2.431,0,0,1-2.4,2.023H12.4c-5.1,0-7.659-1.6-7.9-1.754V7.764c.625-.332,3.961-2.229,3.961-4.951ZM1.125,6.563a.188.188,0,0,1,.188-.188H3.188a.188.188,0,0,1,.188.188V16.688a.19.19,0,0,1-.188.188H1.313a.188.188,0,0,1-.188-.188Z" transform="translate(0.25 0.25)"/></svg>