<svg xmlns="http://www.w3.org/2000/svg" width="17.504" height="17.498" viewBox="0 0 17.504 17.498"><defs><style>.a{fill:#fd810d;stroke:#fd810d;stroke-width:0.5px;}</style></defs><path class="a" d="M1.239,17H3.01A1.241,1.241,0,0,0,4.25,15.759V15.5A16.472,16.472,0,0,0,11.708,17h1.133a3.355,3.355,0,0,0,3.314-2.792l.793-4.6a3.363,3.363,0,0,0-3.314-3.937H10.422a6.608,6.608,0,0,0,.4-2.3C10.823.7,9.317,0,8.521,0,7.051,0,6.927,1.371,6.927,2.656c0,1.568-1.759,2.871-2.687,3.451A1.237,1.237,0,0,0,3.01,4.958H1.239A1.241,1.241,0,0,0,0,6.2v9.561A1.241,1.241,0,0,0,1.239,17ZM7.99,2.656c0-1.594.27-1.594.531-1.594.5,0,1.239.613,1.239,2.3A5.029,5.029,0,0,1,9.141,5.9a.531.531,0,0,0,.442.826h4.051A2.3,2.3,0,0,1,15.9,9.421l-.793,4.6a2.3,2.3,0,0,1-2.267,1.91H11.708c-4.818,0-7.232-1.506-7.459-1.656V7.331c.59-.313,3.74-2.1,3.74-4.675ZM1.062,6.2a.177.177,0,0,1,.177-.177H3.01a.177.177,0,0,1,.177.177v9.561a.179.179,0,0,1-.177.177H1.239a.177.177,0,0,1-.177-.177Z" transform="translate(0.25 0.25)"/></svg>