<svg xmlns="http://www.w3.org/2000/svg" width="28" height="29.998" viewBox="0 0 28 29.998"><defs><style>.a{fill:#7f17e6;}</style></defs><path class="a" d="M25.33,16h0a3.23,3.23,0,0,1-1.7-2.51v-2a9.67,9.67,0,0,0-6.83-9.2V1.88A1.88,1.88,0,0,0,14.93,0H13.07A1.88,1.88,0,0,0,11.2,1.88v.41a9.67,9.67,0,0,0-6.83,9.25v2a2.54,2.54,0,0,1-1.21,2.21h0A6.11,6.11,0,0,0,0,21.09a4.21,4.21,0,0,0,4.2,4.22H23.8A4.21,4.21,0,0,0,28,21.09,6.11,6.11,0,0,0,25.33,16Z"/><path class="a" d="M18.28,27.19H9.72a.38.38,0,0,0-.3.61,5.87,5.87,0,0,0,9.16,0,.38.38,0,0,0-.3-.61Z"/></svg>