<svg xmlns="http://www.w3.org/2000/svg" width="20" height="20" viewBox="0 0 20 20"><defs><style>.a{fill:#fff;}</style></defs><g transform="translate(-1313 -441)"><path class="a" d="M1330.047,442.111a1.878,1.878,0,0,1,1.842,1.908v10.317a1.877,1.877,0,0,1-1.842,1.907h-5.89l-.283.193-3,2.045-1.263.86v-3.1h-3.658a1.877,1.877,0,0,1-1.842-1.907V444.019a1.878,1.878,0,0,1,1.842-1.908h14.094m0-1.111h-14.094a3,3,0,0,0-2.953,3.019v10.317a3,3,0,0,0,2.953,3.018h2.547v3.134a.505.505,0,0,0,.5.512.484.484,0,0,0,.276-.087l2.223-1.514,3-2.045h5.547a3,3,0,0,0,2.953-3.018V444.019a3,3,0,0,0-2.953-3.019Z"/><path class="a" d="M1321.333,452.111h-4.444a.555.555,0,1,0,0,1.111h4.444a.555.555,0,1,0,0-1.111Z"/><path class="a" d="M1325.749,448.778h-8.831a.584.584,0,1,0,0,1.169h8.831a.584.584,0,0,0,0-1.169Z"/><path class="a" d="M1324.111,445.444h-7.222a.556.556,0,1,0,0,1.112h7.222a.556.556,0,1,0,0-1.112Z"/><path class="a" d="M1329.111,445.444h-2.778a.556.556,0,0,0,0,1.112h2.778a.556.556,0,1,0,0-1.112Z"/></g></svg>