<svg xmlns="http://www.w3.org/2000/svg" width="70" height="70" viewBox="0 0 70 70"><defs><style>.a{fill:#f9e000;}.b{fill:#3c1e1e;}</style></defs><g transform="translate(-2172 -816)"><path class="a" d="M2230.8,816h-47.6a11.2,11.2,0,0,0-11.2,11.2v47.6a11.2,11.2,0,0,0,11.2,11.2h47.6a11.2,11.2,0,0,0,11.2-11.2V827.2A11.2,11.2,0,0,0,2230.8,816ZM2207,868.491c-1.488,0-4.362-.3-4.362-.3l-10.746,7.079a.556.556,0,0,1-.852-.567l1.808-9.7c-6.561-3.585-10.864-9.593-10.864-16.4,0-10.983,11.2-19.888,25.016-19.888s25.016,8.9,25.016,19.888S2220.815,868.491,2207,868.491Z"/><path class="b" d="M2207,828.715c-13.816,0-25.016,8.9-25.016,19.888,0,6.809,4.3,12.817,10.864,16.4l-1.808,9.7a.556.556,0,0,0,.852.567l10.746-7.079s2.874.3,4.362.3c13.815,0,25.016-8.9,25.016-19.888S2220.815,828.715,2207,828.715Zm-12.345,25.52a1.216,1.216,0,0,1-.353.853,1.186,1.186,0,0,1-.841.352h-.262a1.186,1.186,0,0,1-.843-.353,1.216,1.216,0,0,1-.353-.852v-8.7h-2.343a1.236,1.236,0,0,1,0-2.471h7.209a1.236,1.236,0,0,1,0,2.471h-2.214Zm11.548,1.14a1.189,1.189,0,0,1-1.52-.735l-.611-1.758h-4.917l-.612,1.758a1.189,1.189,0,0,1-1.52.735,1.2,1.2,0,0,1-.729-1.531l.015-.041.029-.078.043-.116.056-.152.068-.185.08-.215.09-.244.1-.27.109-.294.116-.314.124-.333.129-.35.134-.363.139-.375.142-.383.144-.39.146-.394.146-.4.147-.395.145-.392.143-.387.14-.378.136-.368.131-.356.126-.339.119-.323.112-.3.1-.28.094-.254.084-.228.073-.2.061-.166c.058-.155.234-.662.278-.754a1.5,1.5,0,0,1,.185-.293,1.7,1.7,0,0,1,.386-.345,1.9,1.9,0,0,1,.5-.226,2.046,2.046,0,0,1,.576-.081,1.763,1.763,0,0,1,1.684,1.042l.012.01,3.593,9.9A1.2,1.2,0,0,1,2206.2,855.375Zm7.538-.014h-4.9a1.118,1.118,0,0,1-1.114-1.123V844.227a1.331,1.331,0,1,1,2.662,0v8.889h3.351a1.123,1.123,0,0,1,0,2.245Zm10.522-.158a1.182,1.182,0,0,1-1.665-.238l-3.534-4.674-.759.765V854.1a1.331,1.331,0,1,1-2.662,0v-9.875a1.331,1.331,0,1,1,2.662,0v3.492l4.179-4.211a1.166,1.166,0,0,1,1.657,0,1.187,1.187,0,0,1,0,1.668l-3.377,3.4,3.737,4.946A1.2,1.2,0,0,1,2224.263,855.2Z"/><path class="b" d="M2201.587,845.887l-1.652,4.751h3.356l-1.65-4.746C2201.622,845.892,2201.606,845.887,2201.587,845.887Z"/><path class="a" d="M2198.1,844.294a1.231,1.231,0,0,0-1.228-1.234h-7.209a1.236,1.236,0,0,0,0,2.471H2192v8.7a1.216,1.216,0,0,0,.353.852,1.186,1.186,0,0,0,.843.353h.262a1.186,1.186,0,0,0,.841-.352,1.216,1.216,0,0,0,.353-.853v-8.7h2.214A1.233,1.233,0,0,0,2198.1,844.294Z"/><path class="a" d="M2213.741,853.116h-3.351v-8.889a1.331,1.331,0,1,0-2.662,0v10.011a1.118,1.118,0,0,0,1.114,1.123h4.9a1.123,1.123,0,0,0,0-2.245Z"/><path class="a" d="M2220.763,848.578l3.377-3.4a1.187,1.187,0,0,0,0-1.668,1.166,1.166,0,0,0-1.657,0l-4.179,4.211v-3.492a1.331,1.331,0,1,0-2.662,0V854.1a1.331,1.331,0,1,0,2.662,0v-3.046l.759-.765,3.534,4.674a1.182,1.182,0,0,0,1.665.238,1.2,1.2,0,0,0,.237-1.679Z"/><path class="a" d="M2203.339,843.939l-.012-.01a1.763,1.763,0,0,0-1.684-1.042,2.046,2.046,0,0,0-.576.081,1.9,1.9,0,0,0-.5.226,1.7,1.7,0,0,0-.386.345,1.5,1.5,0,0,0-.185.293c-.044.092-.22.6-.278.754l-.061.166-.073.2-.084.228-.094.254-.1.28-.112.3-.119.323-.126.339-.131.356-.136.368-.14.378-.143.387-.145.392-.147.395-.146.4-.146.394-.144.39-.142.383-.139.375-.134.363-.129.35-.124.333-.116.314-.109.294-.1.27-.09.244-.08.215-.068.185-.056.152-.043.116-.029.078-.015.041a1.2,1.2,0,0,0,.729,1.531,1.189,1.189,0,0,0,1.52-.735l.612-1.758h4.917l.611,1.758a1.189,1.189,0,0,0,1.52.735,1.2,1.2,0,0,0,.729-1.531Zm-3.4,6.7,1.652-4.751c.019,0,.035.005.054.005l1.65,4.746Z"/></g></svg>