<svg xmlns="http://www.w3.org/2000/svg" width="30" height="30" viewBox="0 0 30 30"><defs><style>.a{fill:#fd810d;}</style></defs><g transform="translate(-930 -928)"><path class="a" d="M945,929.5A13.5,13.5,0,1,1,931.5,943,13.515,13.515,0,0,1,945,929.5m0-1.5a15,15,0,1,0,15,15,15,15,0,0,0-15-15Z"/><path class="a" d="M943.8,946.065V950.5h-3.679V938.444a5.944,5.944,0,0,1,.134-1.36,2.033,2.033,0,0,1,.455-.913,1.832,1.832,0,0,1,.858-.513,4.819,4.819,0,0,1,1.339-.158h3.107a7.142,7.142,0,0,1,2.143.307,4.661,4.661,0,0,1,1.7.932,4.225,4.225,0,0,1,1.116,1.593,5.959,5.959,0,0,1,.4,2.292v.317a5.959,5.959,0,0,1-.4,2.292,4.225,4.225,0,0,1-1.116,1.593,4.661,4.661,0,0,1-1.7.932,7.142,7.142,0,0,1-2.143.307Zm0-3.242h2.035a1.893,1.893,0,0,0,.795-.159,1.671,1.671,0,0,0,.589-.438,1.945,1.945,0,0,0,.366-.633,2.208,2.208,0,0,0,.125-.745v-.131a2.2,2.2,0,0,0-.125-.745,1.959,1.959,0,0,0-.366-.634,1.68,1.68,0,0,0-.589-.437,1.893,1.893,0,0,0-.795-.159h-1.518a.611.611,0,0,0-.41.1.627.627,0,0,0-.107.438Z"/></g></svg>