<svg xmlns="http://www.w3.org/2000/svg" width="16" height="12" viewBox="0 0 16 12"><defs><style>.a{fill:#191919;}</style></defs><g transform="translate(-1646 -1135)"><path class="a" d="M1650.2,1136.1a11.656,11.656,0,0,1,3.133.34v9.252a17.735,17.735,0,0,0-6.266,0v-9.252a11.655,11.655,0,0,1,3.133-.34m0-1.1c-2.32,0-4.2.407-4.2.909V1146.7c0,.176.189.3.4.3a.5.5,0,0,0,.178-.032,14.842,14.842,0,0,1,7.246,0,.5.5,0,0,0,.178.032c.21,0,.4-.126.4-.3v-10.789c0-.5-1.88-.909-4.2-.909Z"/><path class="a" d="M1657.8,1136.1a11.655,11.655,0,0,1,3.133.34v9.252a17.735,17.735,0,0,0-6.266,0v-9.252a11.656,11.656,0,0,1,3.133-.34m0-1.1c-2.32,0-4.2.407-4.2.909V1146.7c0,.176.189.3.4.3a.5.5,0,0,0,.178-.032,14.842,14.842,0,0,1,7.246,0,.5.5,0,0,0,.178.032c.21,0,.4-.126.4-.3v-10.789c0-.5-1.88-.909-4.2-.909Z"/></g></svg>