<svg xmlns="http://www.w3.org/2000/svg" width="20" height="15" viewBox="0 0 20 15"><defs><style>.a{fill:#fff;}</style></defs><g transform="translate(-1586 -1133)"><path class="a" d="M1591.25,1134.379a14.631,14.631,0,0,1,3.917.424v11.566a22.156,22.156,0,0,0-7.834,0V1134.8a14.631,14.631,0,0,1,3.917-.424m0-1.379c-2.9,0-5.25.509-5.25,1.137v13.485c0,.22.236.378.5.378a.654.654,0,0,0,.224-.039,18.521,18.521,0,0,1,9.056,0,.654.654,0,0,0,.224.039c.262,0,.5-.158.5-.378v-13.485c0-.628-2.35-1.137-5.25-1.137Z"/><path class="a" d="M1600.75,1134.379a14.631,14.631,0,0,1,3.917.424v11.566a22.156,22.156,0,0,0-7.834,0V1134.8a14.631,14.631,0,0,1,3.917-.424m0-1.379c-2.9,0-5.25.509-5.25,1.137v13.485c0,.22.236.378.5.378a.654.654,0,0,0,.224-.039,18.521,18.521,0,0,1,9.056,0,.654.654,0,0,0,.224.039c.262,0,.5-.158.5-.378v-13.485c0-.628-2.35-1.137-5.25-1.137Z"/></g></svg>