<svg xmlns="http://www.w3.org/2000/svg" width="30" height="20" viewBox="0 0 30 20"><defs><style>.a{fill:#16a746;}</style></defs><g transform="translate(-1520 -1410)"><path class="a" d="M1548,1412v16h-16a2,2,0,0,0-4,0h-6v-16h6a2,2,0,0,0,4,0h16m0-2h-16a2,2,0,0,1-4,0h-6a2,2,0,0,0-2,2v16a2,2,0,0,0,2,2h6a2,2,0,0,1,4,0h16a2,2,0,0,0,2-2v-16a2,2,0,0,0-2-2Z"/><path class="a" d="M1530,1415a1,1,0,0,0-1,1v2a1,1,0,0,0,2,0v-2a1,1,0,0,0-1-1Z"/><path class="a" d="M1530,1421a1,1,0,0,0-1,1v2a1,1,0,0,0,2,0v-2a1,1,0,0,0-1-1Z"/></g></svg>