<svg xmlns="http://www.w3.org/2000/svg" width="20" height="20" viewBox="0 0 20 20"><defs><style>.a{fill:#7b7b7b;}</style></defs><g transform="translate(-736 -1120)"><path class="a" d="M746,1121.333a8.667,8.667,0,1,1-8.667,8.667,8.677,8.677,0,0,1,8.667-8.667m0-1.333a10,10,0,1,0,10,10,10,10,0,0,0-10-10Z"/><path class="a" d="M744.531,1132.232v-.732a3.5,3.5,0,0,1,.156-1.14,1.429,1.429,0,0,1,.66-.744q.4-.24.708-.432a3.782,3.782,0,0,0,.5-.36,1.563,1.563,0,0,0,.384-.486,1.341,1.341,0,0,0,.1-.534.811.811,0,0,0-.289-.66,1.047,1.047,0,0,0-.7-.24,1.423,1.423,0,0,0-.75.2.943.943,0,0,0-.438.57,1.167,1.167,0,0,1-.48.66,1.34,1.34,0,0,1-.852.192,1.235,1.235,0,0,1-.4-.09.934.934,0,0,1-.33-.222,1.09,1.09,0,0,1-.222-.354,1.164,1.164,0,0,1-.072-.486,2.018,2.018,0,0,1,.3-1.026,2.823,2.823,0,0,1,.768-.822,3.791,3.791,0,0,1,1.116-.546,4.535,4.535,0,0,1,1.356-.2,4.839,4.839,0,0,1,1.374.186,3.079,3.079,0,0,1,1.086.558,2.553,2.553,0,0,1,.714.942,3.22,3.22,0,0,1,.258,1.338,3.47,3.47,0,0,1-.144,1.056,2.437,2.437,0,0,1-.469.828,4.963,4.963,0,0,1-.677.624c-.268.208-.551.408-.846.6a.8.8,0,0,0-.324.354,1.175,1.175,0,0,0-.072.426v.54Zm-.073,1.776a1.176,1.176,0,0,1,.337-.888,1.538,1.538,0,0,1,1.9.006,1.326,1.326,0,0,1,0,1.764,1.538,1.538,0,0,1-1.9.006A1.176,1.176,0,0,1,744.458,1134.008Z"/></g></svg>