<svg xmlns="http://www.w3.org/2000/svg" width="589" height="78.448" viewBox="0 0 589 78.448"><defs><style>.a{fill:#fd810d;}.b{fill:#7f17e6;}</style></defs><g transform="translate(-1993.842 -366.824)"><g transform="translate(2268.975 366.824)"><g transform="translate(19.692 0)"><rect class="a" width="27.265" height="73.844" rx="13.633" transform="matrix(0.906, -0.423, 0.423, 0.906, 0, 11.523)"/></g><g transform="translate(59.085 0)"><rect class="a" width="27.265" height="73.844" rx="13.633" transform="matrix(0.906, -0.423, 0.423, 0.906, 0, 11.523)"/></g><g transform="translate(39.383 0)"><rect class="b" width="27.265" height="73.844" rx="13.633" transform="translate(31.208 0) rotate(25)"/></g><g transform="translate(0 0)"><rect class="b" width="27.265" height="73.844" rx="13.633" transform="translate(31.208 0) rotate(25)"/></g><g transform="translate(83.247 46.798)"><circle class="b" cx="13.633" cy="13.633" r="13.633"/></g></g><g transform="translate(1993.842 372.694)"><path class="b" d="M2005.9,436.551a20.426,20.426,0,0,1-8.748-6.809,17.925,17.925,0,0,1-3.31-10.5h14.187a9.169,9.169,0,0,0,2.883,6.431,10.217,10.217,0,0,0,7.14,2.366,10.986,10.986,0,0,0,7.283-2.222,7.229,7.229,0,0,0,2.648-5.816,6.731,6.731,0,0,0-1.8-4.823,12.6,12.6,0,0,0-4.492-2.979,75.016,75.016,0,0,0-7.424-2.412,79.478,79.478,0,0,1-10.451-3.737,18.269,18.269,0,0,1-6.9-5.58q-2.886-3.734-2.886-9.976a17.84,17.84,0,0,1,2.933-10.215,18.627,18.627,0,0,1,8.227-6.666,29.933,29.933,0,0,1,12.105-2.318q10.217,0,16.6,4.967t7.046,13.855h-14.564a7.569,7.569,0,0,0-2.885-5.628,10.871,10.871,0,0,0-7.139-2.221,9.188,9.188,0,0,0-6.2,1.986,7.179,7.179,0,0,0-2.317,5.768,5.953,5.953,0,0,0,1.75,4.4,13.334,13.334,0,0,0,4.352,2.839q2.6,1.087,7.33,2.5a77.281,77.281,0,0,1,10.5,3.784,18.869,18.869,0,0,1,7,5.674q2.929,3.783,2.931,9.93a18.684,18.684,0,0,1-2.741,9.834,19.38,19.38,0,0,1-8.04,7.236,27.441,27.441,0,0,1-12.579,2.694A31.351,31.351,0,0,1,2005.9,436.551Z" transform="translate(-1993.843 -371.293)"/><path class="b" d="M2081.144,372.014V382.7h-17.592v55.327h-13.24V382.7h-17.589V372.014Z" transform="translate(-1981.651 -371.067)"/><path class="b" d="M2087.715,434.563a32.476,32.476,0,0,1-12.293-12.057,35.623,35.623,0,0,1,0-34.8,32.5,32.5,0,0,1,12.293-12.06,35.577,35.577,0,0,1,34.1,0,32.239,32.239,0,0,1,12.2,12.06,35.948,35.948,0,0,1,0,34.8,32.11,32.11,0,0,1-12.248,12.057,35.482,35.482,0,0,1-34.047,0Zm27.523-10.166a18.489,18.489,0,0,0,7.093-7.708,25.3,25.3,0,0,0,2.553-11.633,25,25,0,0,0-2.553-11.585,18.249,18.249,0,0,0-7.093-7.615,20.464,20.464,0,0,0-10.5-2.647,20.719,20.719,0,0,0-10.545,2.647,18.151,18.151,0,0,0-7.142,7.615,25.011,25.011,0,0,0-2.552,11.585,25.3,25.3,0,0,0,2.552,11.633,18.387,18.387,0,0,0,7.142,7.708,20.433,20.433,0,0,0,10.545,2.694A20.182,20.182,0,0,0,2115.238,424.4Z" transform="translate(-1969.687 -371.293)"/><path class="b" d="M2160.3,438.027,2145.73,412.3h-6.242v25.724h-13.24V372.014h24.78a28.95,28.95,0,0,1,13.051,2.694,18.85,18.85,0,0,1,8.086,7.282,19.894,19.894,0,0,1,2.7,10.261,19.667,19.667,0,0,1-3.783,11.776q-3.783,5.247-11.254,7.235l15.793,26.765Zm-20.807-35.656h11.066q5.389,0,8.039-2.6a9.684,9.684,0,0,0,2.648-7.235,9.242,9.242,0,0,0-2.648-7.047q-2.65-2.5-8.039-2.5h-11.066Z" transform="translate(-1952.328 -371.067)"/><path class="b" d="M2222.6,372.014l-22.319,43.03v22.983h-13.24V415.044l-22.415-43.03h14.943l14.186,30.168,14.091-30.168Z" transform="translate(-1940.296 -371.067)"/><path class="b" d="M2306.59,434.563a32.484,32.484,0,0,1-12.3-12.057,35.64,35.64,0,0,1,0-34.8,32.508,32.508,0,0,1,12.3-12.06,35.57,35.57,0,0,1,34.092,0,32.252,32.252,0,0,1,12.2,12.06,35.948,35.948,0,0,1,0,34.8,32.129,32.129,0,0,1-12.248,12.057,35.481,35.481,0,0,1-34.046,0Zm27.52-10.166a18.488,18.488,0,0,0,7.094-7.708,25.276,25.276,0,0,0,2.552-11.633,24.984,24.984,0,0,0-2.552-11.585,18.248,18.248,0,0,0-7.094-7.615,20.454,20.454,0,0,0-10.5-2.647,20.721,20.721,0,0,0-10.543,2.647,18.142,18.142,0,0,0-7.14,7.615,24.984,24.984,0,0,0-2.555,11.585,25.276,25.276,0,0,0,2.555,11.633,18.378,18.378,0,0,0,7.14,7.708,20.435,20.435,0,0,0,10.543,2.694A20.172,20.172,0,0,0,2334.11,424.4Z" transform="translate(-1901.063 -371.293)"/><path class="b" d="M2401.584,438.05h-13.24l-29.981-45.3v45.3h-13.24V371.941h13.24l29.981,45.4v-45.4h13.24Z" transform="translate(-1883.703 -371.09)"/><path class="b" d="M2441.174,392.077a15.521,15.521,0,0,0-6.242-6.335,19,19,0,0,0-9.27-2.177,20.274,20.274,0,0,0-10.4,2.648,18.3,18.3,0,0,0-7.093,7.567,26.693,26.693,0,0,0,.049,22.887,18.37,18.37,0,0,0,7.235,7.566,21.34,21.34,0,0,0,10.78,2.647q7.564,0,12.388-4.019a19.164,19.164,0,0,0,6.338-11.206h-22.7V401.534h35.75v11.539a31.05,31.05,0,0,1-5.675,12.766,32.021,32.021,0,0,1-11.209,9.41,32.929,32.929,0,0,1-15.367,3.548,34.78,34.78,0,0,1-17.26-4.3,31.272,31.272,0,0,1-12.1-11.964,36.7,36.7,0,0,1,0-34.849,31.2,31.2,0,0,1,12.1-12.011,36.863,36.863,0,0,1,36.553,1.134,27.779,27.779,0,0,1,11.349,15.274Z" transform="translate(-1869.008 -371.27)"/></g></g></svg>