<svg xmlns="http://www.w3.org/2000/svg" width="14.024" height="13.991" viewBox="0 0 14.024 13.991"><defs><style>.a{fill:#d1d1d1;}</style></defs><g transform="translate(0.002 -0.006)"><path class="a" d="M7.38,12.2l3.05,1.7a.79.79,0,0,0,1.16-.82L11,9.38a.78.78,0,0,1,.22-.68L13.8,6.05a.79.79,0,0,0-.45-1.33L9.84,4.18a.77.77,0,0,1-.59-.44L7.71.45a.79.79,0,0,0-1.42,0L4.75,3.74a.77.77,0,0,1-.59.44L.67,4.72A.79.79,0,0,0,.22,6.05L2.8,8.7a.78.78,0,0,1,.2.68l-.61,3.7a.79.79,0,0,0,1.16.82L6.6,12.2a.79.79,0,0,1,.78,0Z"/></g></svg>